<!DOCTYPE svg PUBLIC "-//W3C//DTD SVG 1.1//EN" "http://www.w3.org/Graphics/SVG/1.1/DTD/svg11.dtd">
<!-- Uploaded to: SVG Repo, www.svgrepo.com, Transformed by: SVG Repo Mixer Tools -->
<svg fill="#4dbbf4" height="800px" width="800px" version="1.1" id="Layer_1" xmlns="http://www.w3.org/2000/svg" xmlns:xlink="http://www.w3.org/1999/xlink" viewBox="0 0 512 512" xml:space="preserve">
<g id="SVGRepo_bgCarrier" stroke-width="0"/>
<g id="SVGRepo_tracerCarrier" stroke-linecap="round" stroke-linejoin="round"/>
<g id="SVGRepo_iconCarrier"> <g transform="translate(1 1)"> <g> <g> <path d="M41.667,229.4c-5.12,0-8.533,3.413-8.533,8.533v25.6c0,5.12,3.413,8.533,8.533,8.533s8.533-3.413,8.533-8.533v-25.6 C50.2,232.813,46.787,229.4,41.667,229.4z"/> <path d="M172.227,435.907l-23.04-11.093c-4.267-1.707-9.387,0-11.093,4.267s0,9.387,4.267,11.093l23.04,11.093 c0.853,0.853,2.56,0.853,3.413,0.853c2.56,0,5.973-1.707,7.68-5.12C178.2,442.733,176.493,437.613,172.227,435.907z"/> <path d="M109.933,406.893L82.91,394.133c0.925-3.539,1.423-7.267,1.423-11.133c0-8.1-2.163-15.609-5.947-22l15.333-10.427 c4.267-2.56,5.12-7.68,2.56-11.947s-7.68-5.12-11.947-2.56l-17.782,12.092c-4.784-3.391-10.319-5.816-16.351-7v-43.492 c0-5.12-3.413-8.533-8.533-8.533s-8.533,3.413-8.533,8.533v43.492C13.452,345.019-1,362.037-1,383 c0,23.893,18.773,42.667,42.667,42.667c13.928,0,26.108-6.387,33.852-16.441l27.588,13.028c0.853,0.853,2.56,0.853,3.413,0.853 c3.413,0,6.827-1.707,7.68-5.12C115.907,413.72,114.2,408.6,109.933,406.893z M41.667,408.6c-14.507,0-25.6-11.093-25.6-25.6 c0-14.507,11.093-25.6,25.6-25.6c14.507,0,25.6,11.093,25.6,25.6C67.267,397.507,56.173,408.6,41.667,408.6z"/> <path d="M468.333,263.533c-5.12,0-8.533,3.413-8.533,8.533v25.6c0,5.12,3.413,8.533,8.533,8.533s8.533-3.413,8.533-8.533v-25.6 C476.867,266.947,473.453,263.533,468.333,263.533z"/> <path d="M476.867,212.333c0-5.12-3.413-8.533-8.533-8.533s-8.533,3.413-8.533,8.533v25.6c0,5.12,3.413,8.533,8.533,8.533 s8.533-3.413,8.533-8.533V212.333z"/> <path d="M33.133,160.308v26.425c0,5.12,3.413,8.533,8.533,8.533s8.533-3.413,8.533-8.533v-26.425 c10.262-2.013,19.094-7.608,25.205-15.47l17.462,11.176c0.853,1.707,2.56,1.707,4.267,1.707c3.413,0,5.973-1.707,7.68-4.267 c2.56-4.267,1.707-9.387-2.56-11.947L83.02,129.197c0.858-3.419,1.313-7.012,1.313-10.731c0-6.61-1.443-12.826-4.027-18.363 l30.481-12.357c4.267-1.707,5.973-6.827,4.267-11.093s-6.827-5.973-11.093-4.267l-31.573,12.8 c-0.824,0.33-1.551,0.789-2.178,1.343C62.696,79.832,52.733,75.8,41.667,75.8C17.773,75.8-1,94.573-1,118.467 C-1,139.43,13.452,156.448,33.133,160.308z M41.667,92.867c14.507,0,25.6,11.093,25.6,25.6s-11.093,25.6-25.6,25.6 c-14.507,0-25.6-11.093-25.6-25.6S27.16,92.867,41.667,92.867z"/> <path d="M476.867,341.159v-17.892c0-5.12-3.413-8.533-8.533-8.533s-8.533,3.413-8.533,8.533v17.892 c-9.713,1.905-18.146,7.017-24.203,14.225l-7.37-7.37c-3.413-3.413-8.533-3.413-11.947,0c-3.413,3.413-3.413,8.533,0,11.947 l11.049,11.049c-1.076,3.793-1.662,7.811-1.662,11.991c0,3.865,0.498,7.593,1.423,11.133l-27.023,12.761 c-4.267,1.707-5.973,6.827-4.267,11.093c1.707,3.413,4.267,5.12,7.68,5.12c0.853,0,2.56,0,3.413-0.853l27.588-13.028 c7.744,10.054,19.924,16.441,33.852,16.441C492.227,425.667,511,406.893,511,383C511,362.037,496.548,345.019,476.867,341.159z M468.333,408.6c-14.507,0-25.6-11.093-25.6-25.6c0-14.507,11.093-25.6,25.6-25.6c14.507,0,25.6,11.093,25.6,25.6 C493.933,397.507,482.84,408.6,468.333,408.6z"/> <path d="M162.84,348.867h189.44c15.114,0,28.774-4.932,39.561-13.346l6.519,6.519c1.707,1.707,3.413,2.56,5.973,2.56 c1.707,0,4.267-0.853,5.973-2.56c3.413-3.413,3.413-8.533,0-11.947l-6.683-6.683c8.286-11.217,13.013-25.409,12.656-41.104 c0-31.573-18.773-58.027-46.08-66.56c-0.936-10.666-3.595-20.879-7.698-30.327l23.912-13.193c4.267-2.56,5.973-7.68,3.413-11.947 c-2.56-4.267-7.68-5.973-11.947-3.413l-23.799,13.131c-16.929-25.296-45.323-42.144-77.747-42.144 c-29.013,0-58.027,14.507-75.947,37.547c-1.735-0.651-3.582-1.189-5.482-1.633c-5.203-1.703-10.809-2.633-16.705-2.633 c-11.359,0-21.532,3.281-29.717,8.951l-17.216-10.658c-4.267-2.56-9.387-1.707-11.947,2.56s-1.707,9.387,2.56,11.947 l14.178,8.777c-5.232,7.853-8.205,17.408-8.205,27.916c0,0.105,0.01,0.204,0.013,0.307c-0.002,0.183-0.013,0.363-0.013,0.546 c-21.333,12.8-34.987,36.693-34.987,63.147c0,17.891,6.025,34.316,16.011,47.144c-0.748,2.349-0.399,5.046,1.055,7.47 c1.707,1.707,4.267,3.413,6.827,3.413c0.82,0,1.64-0.002,2.46-0.097C131.216,342.751,146.397,348.867,162.84,348.867z M139.8,224.28l5.12-2.56v-5.12c0-0.853,0-0.853,0-2.56v-0.853v-2.56c0-18.773,13.653-32.427,33.28-32.427 c18.773,0,34.133,15.36,34.133,34.133c0,5.12,3.413,8.533,8.533,8.533s8.533-3.413,8.533-8.533 c0-15.309-6.182-28.714-16.28-37.965c14.999-19.405,39.47-31.155,63.213-31.155c42.667,0,76.8,34.987,77.653,77.653v6.827 l6.827,1.707c23.04,4.267,39.253,26.453,39.253,52.053c0,13.424-4.391,25.198-11.807,33.981c-0.966,0.426-1.882,1.042-2.7,1.859 c-0.873,0.873-1.519,1.858-1.945,2.897c-8.263,7.325-19.111,11.61-31.335,11.61H162.84c-29.013,0-52.907-25.6-52.907-57.173 C109.933,252.44,121.027,232.813,139.8,224.28z"/> <path d="M307.053,450.413l-11.202,5.377c-5.248-17.603-21.34-30.124-40.851-30.124c-19.511,0-35.603,12.521-40.851,30.124 l-11.202-5.377c-4.267-1.707-9.387,0-11.093,4.267s0,9.387,4.267,11.093l16.55,7.944C215.249,494.985,232.935,511,255,511 c22.065,0,39.751-16.015,42.33-37.283l16.55-7.944c4.267-1.707,5.973-6.827,4.267-11.093S311.32,448.707,307.053,450.413z M255,493.933c-14.507,0-25.6-11.093-25.6-25.6c0-14.507,11.093-25.6,25.6-25.6c14.507,0,25.6,11.093,25.6,25.6 C280.6,482.84,269.507,493.933,255,493.933z"/> <path d="M360.813,424.813l-23.04,11.093c-4.267,1.707-5.973,6.827-4.267,11.093c1.707,3.413,4.267,5.12,7.68,5.12 c1.707,0,2.56,0,4.267-0.853l22.187-11.093c4.267-1.707,5.973-6.827,4.267-11.093S365.08,423.107,360.813,424.813z"/> <path d="M336.067,62.147l23.893,9.387c0.853,0.853,2.56,0.853,3.413,0.853c3.413,0,5.973-2.56,7.68-5.12 c2.56-4.267,0-9.387-4.267-11.093l-23.893-9.387c-4.267-2.56-9.387,0-11.093,4.267C330.093,55.32,331.8,59.587,336.067,62.147z"/> <path d="M399.213,87.747l30.481,12.357c-2.585,5.537-4.027,11.753-4.027,18.363c0,3.832,0.488,7.53,1.398,11.042l-19.318,11.145 c-4.267,2.56-5.973,7.68-3.413,11.947c1.707,2.56,4.267,4.267,7.68,4.267c0.853,0,2.56-0.853,4.267-0.853l18.643-10.756 c6.097,7.642,14.798,13.074,24.877,15.05v26.425c0,5.12,3.413,8.533,8.533,8.533s8.533-3.413,8.533-8.533v-26.425 C496.548,156.448,511,139.43,511,118.467c0-23.893-18.773-42.667-42.667-42.667c-11.047,0-20.994,4.019-28.503,10.696 c-0.663-0.539-1.409-0.986-2.217-1.309l-31.573-12.8c-4.267-2.56-9.387,0-11.093,4.267 C392.387,80.92,394.947,86.04,399.213,87.747z M468.333,92.867c14.507,0,25.6,11.093,25.6,25.6s-11.093,25.6-25.6,25.6 c-14.507,0-25.6-11.093-25.6-25.6S453.827,92.867,468.333,92.867z"/> <path d="M146.627,72.387c0.853,0,2.56-0.853,3.413-0.853l23.893-9.387c4.267-1.707,5.973-6.827,4.267-11.093 s-6.827-5.973-11.093-4.267l-23.893,9.387c-4.267,1.707-5.973,6.827-4.267,11.093C139.8,70.68,143.213,72.387,146.627,72.387z"/> <path d="M202.093,49.347c0.853,0,2.56,0,3.413-0.853l7.01-2.868C214.46,67.6,232.444,84.333,255,84.333 c22.556,0,40.54-16.733,42.484-38.707l7.01,2.867c0.853,0.853,2.56,0.853,3.413,0.853c3.413,0,6.827-1.707,7.68-5.12 c2.56-4.267,0-9.387-4.267-11.093l-16.372-6.698C288.926,10.261,273.502-1,255-1c-18.502,0-33.926,11.261-39.948,27.436 l-16.372,6.698c-4.267,1.707-5.973,6.827-4.267,11.093C195.267,47.64,198.68,49.347,202.093,49.347z M255,16.067 c14.507,0,25.6,11.093,25.6,25.6c0,14.507-11.093,25.6-25.6,25.6c-14.507,0-25.6-11.093-25.6-25.6 C229.4,27.16,240.493,16.067,255,16.067z"/> </g> </g> </g> </g>
</svg>